<svg width="19" height="10" viewBox="0 0 19 10" fill="#9E9E9E" xmlns="http://www.w3.org/2000/svg">
<path d="M7.66323 3.59742C7.66323 3.59742 5.16031 1.09617 4.18581 0.122229C4.10414 0.0411134 3.99747 0 3.89135 0C3.78468 0 3.678 0.0411134 3.59633 0.122229C2.62239 1.09617 0.120585 3.59576 0.120585 3.59576C0.0389136 3.67743 -0.00108865 3.7841 2.25224e-05 3.89133C0.000578109 3.99689 0.0416916 4.10245 0.122807 4.18301C0.285038 4.3458 0.548386 4.34691 0.709506 4.18523L3.47466 1.42063V9.58331C3.47466 9.81332 3.66134 10 3.89135 10C4.12081 10 4.30804 9.81332 4.30804 9.58331V1.42063L7.07375 4.18634C7.23431 4.34746 7.4971 4.3458 7.65989 4.18301C7.74045 4.10245 7.78157 3.99689 7.78268 3.89133C7.78379 3.78465 7.74379 3.67798 7.66323 3.59742Z" fill="#9E9E9E"/>
<path d="M18.2182 6.40258C18.2182 6.40258 15.7152 8.90383 14.7407 9.87777C14.6591 9.95889 14.5524 10 14.4463 10C14.3396 10 14.2329 9.95889 14.1513 9.87777C13.1773 8.90383 10.6755 6.40424 10.6755 6.40424C10.5938 6.32257 10.5538 6.2159 10.555 6.10867C10.5555 6.00311 10.5966 5.89755 10.6777 5.81699C10.84 5.6542 11.1033 5.65309 11.2644 5.81477L14.0296 8.57937V0.41669C14.0296 0.186677 14.2163 0 14.4463 0C14.6757 0 14.863 0.186677 14.863 0.41669V8.57937L17.6287 5.81366C17.7892 5.65254 18.052 5.6542 18.2148 5.81699C18.2954 5.89755 18.3365 6.00311 18.3376 6.10867C18.3387 6.21535 18.2987 6.32202 18.2182 6.40258Z" fill="#9E9E9E"/>
</svg>
