<svg width="30" height="30" viewBox="0 0 30 30" fill="none" xmlns="http://www.w3.org/2000/svg">
<path d="M14.9911 0C23.2776 0 29.9941 6.71651 29.9941 15.003C29.9941 23.2894 23.2776 30 14.9971 30C6.71061 30 3.88676e-06 23.2835 3.88676e-06 15.003C-0.00589814 6.71651 6.71061 0 14.9911 0Z" fill="#8247E5"/>
<mask id="mask0_9_748" style="mask-type:luminance" maskUnits="userSpaceOnUse" x="5" y="6" width="20" height="18">
<path d="M24.7178 6.48633H5.05811V23.7143H24.7178V6.48633Z" fill="white"/>
</mask>
<g mask="url(#mask0_9_748)">
<path d="M19.9076 11.7332C19.5475 11.5267 19.0872 11.5267 18.6799 11.7332L15.8116 13.433L13.8639 14.5131L11.0486 16.207C10.6886 16.4135 10.2282 16.4135 9.821 16.207L7.61954 14.8672C7.25952 14.6606 7.00573 14.2475 7.00573 13.7871V11.2138C7.00573 10.8007 7.2123 10.3935 7.61954 10.1338L9.821 8.84714C10.181 8.64057 10.6414 8.64057 11.0486 8.84714L13.2501 10.1869C13.6101 10.3935 13.8639 10.8066 13.8639 11.267V12.9668L15.8116 11.8336V10.0866C15.8116 9.67342 15.605 9.26618 15.1977 9.00649L11.1017 6.58666C10.7417 6.38009 10.2814 6.38009 9.87412 6.58666L5.67778 9.05961C5.27054 9.26618 5.06396 9.67932 5.06396 10.0866V14.9203C5.06396 15.3335 5.27054 15.7407 5.67778 16.0004L9.8269 18.4202C10.1869 18.6268 10.6473 18.6268 11.0545 18.4202L13.8698 16.7736L15.8175 15.6404L18.6327 13.9937C18.9927 13.7871 19.4531 13.7871 19.8603 13.9937L22.0618 15.2803C22.4218 15.4869 22.6756 15.9001 22.6756 16.3604V18.9337C22.6756 19.3468 22.469 19.7541 22.0618 20.0138L19.9135 21.3004C19.5534 21.507 19.0931 21.507 18.6858 21.3004L16.4785 20.0138C16.1185 19.8072 15.8647 19.3941 15.8647 18.9337V17.287L13.917 18.4202V20.12C13.917 20.5331 14.1236 20.9404 14.5308 21.2001L18.6799 23.6199C19.04 23.8265 19.5003 23.8265 19.9076 23.6199L24.0567 21.2001C24.4167 20.9935 24.6705 20.5804 24.6705 20.12V15.2331C24.6705 14.82 24.4639 14.4127 24.0567 14.1531L19.9076 11.7332Z" fill="white"/>
</g>
</svg>
