<svg width="19" height="19" viewBox="0 0 19 19" fill="none" xmlns="http://www.w3.org/2000/svg">
<circle cx="9.5" cy="9.5" r="9" stroke="#333333"/>
<path fill-rule="evenodd" clip-rule="evenodd" d="M9.25342 13C9.52525 13 9.74575 12.7795 9.74575 12.5071C9.74575 12.2352 9.52525 12.0148 9.25342 12.0148C8.98158 12.0148 8.7605 12.2352 8.7605 12.5071C8.7605 12.7795 8.98158 13 9.25342 13ZM9.52642 11.3538H8.94425C8.92383 10.676 9.05042 10.1557 9.492 9.63708C9.77842 9.30458 10.4294 8.77433 10.6266 8.43658C11.0477 7.71967 10.6715 6.58333 9.30183 6.58333C8.46242 6.58333 7.77642 7.09492 7.59383 8.04575L7 7.98625C7.16333 6.68192 8.14217 6 9.28783 6C10.4335 6 11.3966 6.72917 11.3966 7.87833C11.3966 8.93183 10.3314 9.50117 9.85775 10.1347C9.61158 10.4631 9.534 10.9379 9.52642 11.3538Z" fill="#616161"/>
</svg>
